<svg xmlns="http://www.w3.org/2000/svg" viewBox="0 0 96 96" role="img" aria-labelledby="title">
  <title id="title">Wyrm hoard</title>
  <rect width="96" height="96" rx="18" fill="#17110d"/>
  <ellipse cx="49" cy="74" rx="33" ry="10" fill="#5a3f1f"/>
  <circle cx="30" cy="69" r="8" fill="#b88235"/>
  <circle cx="46" cy="72" r="9" fill="#d09a43"/>
  <circle cx="63" cy="68" r="8" fill="#aa742b"/>
  <path d="M22 51c12-23 44-30 57-6-9-2-17 0-23 5 10 0 17 3 22 9-18 3-33 0-45-8-4 5-8 9-13 11 1-5 2-8 2-11Z" fill="#607d3b" stroke="#94b95d" stroke-width="3"/>
  <path d="m30 37-6-12 13 6m25 2 9-11-2 15" fill="none" stroke="#8fb156" stroke-width="4" stroke-linecap="round"/>
  <circle cx="45" cy="43" r="3" fill="#f4cf63"/>
  <path d="M49 49c5 3 9 3 13 1" fill="none" stroke="#25321d" stroke-width="3" stroke-linecap="round"/>
</svg>
